<?xml version="1.0" encoding="UTF-8"?>
<svg width="24px" height="24px" viewBox="0 0 24 24" version="1.1" xmlns="http://www.w3.org/2000/svg" xmlns:xlink="http://www.w3.org/1999/xlink">
        <path fill="#000000" d="M10.3707,4.3592 C13.3987,3.1352 17.0337,5.2362 18.7547,7.7142 C19.6567,9.0122 20.0027,10.7132 19.9997193,12.2732 C19.9967,13.7732 19.6017,15.3092 18.7427,16.5512 C16.8577,19.2852 13.1057,20.3002 9.9777,19.3992 C6.7827,18.4792 3.8927,15.5862 4.0027,12.0922 C4.0337,11.1262 4.2947,10.2162 4.6937,9.3402 C5.0777,8.4952 5.5197,7.6662 6.0737,6.9182 C7.1297,5.4922 8.5567,4.4302 10.3707,4.3592 Z M13.6497,5.6262 C12.7127,5.3462 11.6947,5.2862 10.8317,5.6622 C10.8067,5.6742 10.7807,5.6852 10.7537,5.6952 C10.5477,5.7922 10.3517,5.9152 10.1677,6.0672 C9.8787,6.3062 9.4727,6.3522 9.1867,6.0672 C9.1777,6.0572 9.1707,6.0462 9.1617,6.0362 C8.1477,6.4852 7.3667,7.3922 6.7687,8.3682 C5.8877,9.8072 5.1307,11.4692 5.4717,13.1732 C6.0167,15.8932 8.6857,17.9312 11.3317,18.2752 C12.7317,18.4562 14.3057,18.2082 15.5387,17.5712 C16.6467,17.0002 17.4697,16.1622 18.0137,15.0472 C19.0687,12.8852 18.7747,9.7272 17.1387,7.8922 C16.2107,6.8512 14.9877,6.0262 13.6497,5.6262 Z M14.9309,8.4651 C15.1419,8.1541 15.5379,8.0161 15.8799,8.2161 C16.1889,8.3971 16.3399,8.8551 16.1289,9.1661 C15.6109,9.9301 15.1339,10.7221 14.6519,11.5091 C14.2259,12.2051 13.8009,12.9021 13.3439,13.5771 C13.0779,13.9701 12.8139,14.4391 12.4629,14.7621 C11.4779,15.6731 10.1819,14.6341 9.3269,14.0491 C9.0169,13.8371 8.8769,13.4431 9.0779,13.1001 C9.2579,12.7921 9.7179,12.6391 10.0269,12.8501 C10.3989,13.1041 10.7709,13.3601 11.1639,13.5761 C11.2359,13.6151 11.3109,13.6511 11.3829,13.6891 C11.3959,13.6951 11.4029,13.6991 11.4089,13.7031 C11.4199,13.7061 11.4319,13.7091 11.4509,13.7151 C11.4749,13.7211 11.4989,13.7281 11.5239,13.7341 C11.5389,13.7201 11.5549,13.7061 11.5679,13.6931 C11.5732333,13.6874333 11.5805667,13.6786556 11.5885296,13.6686926 L11.6126582,13.636177 L11.6063815,13.6464704 L11.6063815,13.6464704 L11.5839,13.6781 L11.5839,13.6781 L11.6216582,13.624177 L11.637025,13.604975 L11.637025,13.604975 L11.6909,13.5311 C11.7609,13.4321 11.8309,13.3311 11.9009,13.2311 C12.9819,11.6881 13.8749,10.0241 14.9309,8.4651 Z" id="path-1"></path>
</svg>